<?xml version="1.0" encoding="UTF-8" standalone="no"?>
<!-- Created with Inkscape (http://www.inkscape.org/) -->

<svg
   width="67.73333mm"
   height="67.736687mm"
   viewBox="0 0 67.733329 67.736686"
   version="1.1"
   id="svg12848"
   inkscape:version="1.1.1 (3bf5ae0d25, 2021-09-20)"
   sodipodi:docname="logo.svg"
   xmlns:inkscape="http://www.inkscape.org/namespaces/inkscape"
   xmlns:sodipodi="http://sodipodi.sourceforge.net/DTD/sodipodi-0.dtd"
   xmlns="http://www.w3.org/2000/svg"
   xmlns:svg="http://www.w3.org/2000/svg">
  <sodipodi:namedview
     id="namedview12850"
     pagecolor="#ffffff"
     bordercolor="#666666"
     borderopacity="1.0"
     inkscape:pageshadow="2"
     inkscape:pageopacity="0.0"
     inkscape:pagecheckerboard="0"
     inkscape:document-units="mm"
     showgrid="false"
     fit-margin-top="0"
     fit-margin-left="0"
     fit-margin-right="0"
     fit-margin-bottom="0"
     inkscape:zoom="0.72337262"
     inkscape:cx="44.237229"
     inkscape:cy="13.132927"
     inkscape:window-width="1920"
     inkscape:window-height="1001"
     inkscape:window-x="-9"
     inkscape:window-y="-9"
     inkscape:window-maximized="1"
     inkscape:current-layer="layer1" />
  <defs
     id="defs12845" />
  <g
     inkscape:label="Слой 1"
     inkscape:groupmode="layer"
     id="layer1"
     transform="translate(-35.262646,-95.977716)">
    <path
       style="fill:#000000;stroke-width:0.0521326"
       d="m 67.487133,163.67289 c -7.694307,-0.38958 -14.859697,-3.29031 -20.686191,-8.37429 -0.827063,-0.72166 -2.425293,-2.31914 -3.127324,-3.12585 -4.345205,-4.9931 -7.10127,-10.93703 -8.03725,-17.33371 -0.490521,-3.35232 -0.49803,-6.514 -0.02338,-9.843 0.919539,-6.44922 3.699497,-12.47696 8.061682,-17.48003 0.712109,-0.81673 2.309536,-2.41416 3.126268,-3.12627 5.003068,-4.36218 11.03081,-7.142138 17.480031,-8.061679 3.328998,-0.474654 6.490672,-0.467145 9.842996,0.02338 6.396684,0.935981 12.340613,3.692039 17.333711,8.037249 0.806712,0.70203 2.404187,2.30026 3.12585,3.12732 4.359016,4.99565 7.142574,11.03088 8.062114,17.48003 0.47465,3.329 0.46714,6.49068 -0.0234,9.843 -0.93597,6.39661 -3.695686,12.34809 -8.037676,17.33371 -0.711309,0.81675 -2.310161,2.4156 -3.126908,3.12691 -4.977016,4.33449 -10.912222,7.09017 -17.303905,8.03409 -2.29704,0.33923 -4.475845,0.45007 -6.666642,0.33914 z m 3.753552,-2.60291 c 5.904391,-0.43343 11.238243,-2.34324 16.054207,-5.74828 2.703267,-1.91129 5.40045,-4.60847 7.311743,-7.31174 3.405036,-4.81596 5.314849,-10.14981 5.748275,-16.05421 0.0295,-0.40142 0.0536,-1.35153 0.0536,-2.11137 0,-0.75983 -0.0241,-1.70995 -0.0536,-2.11137 -0.433317,-5.90289 -2.340851,-11.23072 -5.747915,-16.05421 -1.896019,-2.68425 -4.620838,-5.40893 -7.312103,-7.31174 -4.815964,-3.40504 -10.149816,-5.314848 -16.054207,-5.748282 -0.939204,-0.06895 -3.283542,-0.06895 -4.222746,0 -7.767468,0.5702 -14.77554,3.794752 -20.180421,9.285422 -5.287139,5.37105 -8.375713,12.22622 -8.93381,19.82881 -0.06895,0.9392 -0.06895,3.28354 0,4.22274 0.433434,5.9044 2.343243,11.23825 5.748281,16.05421 1.902811,2.69127 4.627493,5.41609 7.311744,7.31211 4.782093,3.37782 10.144794,5.30915 15.94994,5.74424 0.843447,0.0632 3.485363,0.0655 4.327012,0.004 z m -0.04468,-4.14434 c -0.216353,-0.34198 -0.673062,-0.73197 -1.094674,-0.93476 -0.300953,-0.14475 -0.497699,-0.196 -0.999211,-0.26029 -0.699513,-0.0897 -1.72561,-0.0776 -1.995615,0.0235 -0.09465,0.0354 -0.185878,0.0506 -0.202727,0.0338 -0.0399,-0.0399 0.214532,-0.14154 0.479085,-0.19137 0.114692,-0.0216 0.337559,-0.066 0.495261,-0.0987 0.157701,-0.0327 0.481472,-0.0625 0.719491,-0.0663 0.362482,-0.006 0.441093,-0.0224 0.484062,-0.10265 0.06883,-0.12862 -0.01314,-0.2729 -0.312564,-0.55015 l -0.239331,-0.22161 0.234597,0.12945 c 0.399831,0.22063 0.753151,0.38901 0.817366,0.38955 0.213074,0.002 0.287563,-0.34776 0.140264,-0.65817 -0.04676,-0.0985 -0.07526,-0.18894 -0.06332,-0.20088 0.01194,-0.0119 0.127945,0.0691 0.257794,0.1801 0.306503,0.26199 0.596075,0.34508 1.454529,0.41734 0.78119,0.0658 1.776927,0.19492 1.916567,0.24858 0.07544,0.029 0.06881,0.0399 -0.03979,0.0656 -0.09483,0.0224 -0.130331,0.0653 -0.130331,0.15757 0,0.10172 0.06136,0.15915 0.310691,0.29078 0.283277,0.14956 0.496524,0.35191 0.435343,0.41309 -0.01345,0.0135 -0.152369,-0.0448 -0.308695,-0.12948 -0.357967,-0.19388 -1.006114,-0.31435 -1.87931,-0.34929 -0.905335,-0.0362 -1.053264,0.0601 -0.725485,0.4726 0.154127,0.19394 0.473144,0.89579 0.473144,1.04092 0,0.16086 -0.0865,0.12308 -0.227141,-0.0992 z m -4.894368,-3.70277 c -0.622211,-0.1508 -1.038666,-0.4798 -1.206011,-0.95275 -0.141367,-0.39951 -0.09784,-1.2914 0.08887,-1.8212 0.196478,-0.55749 0.499631,-1.24627 0.705167,-1.60218 0.09935,-0.17204 0.236768,-0.41836 0.305371,-0.54739 0.0686,-0.12903 0.169893,-0.29325 0.225091,-0.36493 0.112225,-0.14574 0.10553,-0.12425 -0.235547,0.75593 -0.07778,0.20071 -0.186642,0.5526 -0.241921,0.78199 -0.05528,0.22938 -0.123338,0.50189 -0.151242,0.60557 -0.0279,0.10368 -0.05073,0.45568 -0.05073,0.78223 0,0.51289 0.02096,0.66003 0.153949,1.08075 0.16285,0.51518 0.419679,0.91403 0.779622,1.21073 0.177237,0.14609 0.17957,0.15228 0.05579,0.14812 -0.07105,-0.002 -0.263833,-0.037 -0.428412,-0.0769 z m -13.504584,-0.23635 c -0.271146,-0.0639 -0.484882,-0.1812 -0.581634,-0.31933 -0.118091,-0.16859 -0.101516,-0.50209 0.0362,-0.72842 0.152984,-0.2514 0.670883,-0.66306 1.126006,-0.895 0.199431,-0.10163 0.61703,-0.33543 0.927997,-0.51954 0.310968,-0.18411 0.694425,-0.39941 0.852126,-0.47844 0.157702,-0.079 0.34538,-0.18403 0.417062,-0.23333 0.07168,-0.0493 0.260487,-0.16018 0.419567,-0.24643 0.159079,-0.0863 0.593084,-0.34436 0.964454,-0.57359 0.371371,-0.22923 1.082271,-0.66076 1.579778,-0.95896 0.497507,-0.2982 0.957792,-0.57738 1.022856,-0.62039 0.06506,-0.043 0.267965,-0.16742 0.450891,-0.27647 0.482258,-0.28749 0.774061,-0.47119 1.505579,-0.94782 0.764061,-0.49784 1.957749,-1.26032 2.201496,-1.40623 0.160287,-0.0959 0.165839,-0.0962 0.09234,-0.005 -0.06954,0.0864 -0.460396,0.41561 -2.49212,2.09896 -0.584743,0.48448 -0.65058,0.6175 -0.349111,0.70536 0.173881,0.0507 0.811855,0.0189 1.2674,-0.0631 0.906458,-0.16321 1.200729,-0.21951 1.3653,-0.26117 0.100356,-0.0254 0.270438,-0.0687 0.377962,-0.0963 0.107524,-0.0276 0.195498,-0.0421 0.195498,-0.0322 0,0.0155 -0.602558,0.42104 -0.847863,0.57065 -0.04702,0.0287 -0.526488,0.33642 -1.065493,0.6839 -1.857521,1.19746 -2.87596,1.83697 -4.073152,2.55763 -0.895537,0.53907 -1.026173,0.61395 -1.71805,0.9847 -1.556592,0.83413 -2.94046,1.23344 -3.675093,1.06046 z m 16.646418,-2.03778 c -1.04e-4,-0.0169 0.12202,-0.44363 0.209108,-0.69911 0.847405,-2.48589 2.046755,-4.58154 3.475513,-6.07283 1.114535,-1.16332 2.207699,-1.99033 2.969024,-2.24616 0.375602,-0.12622 0.522733,-0.14788 1.004616,-0.14788 0.451518,0 0.57829,-0.0165 0.633095,-0.0826 0.102968,-0.12407 0.0014,-0.24315 -0.286637,-0.33608 l -0.247295,-0.0798 0.278186,-0.11374 c 0.153002,-0.0626 0.536242,-0.19481 0.851645,-0.2939 0.538669,-0.16923 0.677279,-0.20805 1.199052,-0.3358 1.011517,-0.24766 2.234387,-0.18181 3.20156,0.1724 0.322656,0.11817 0.501313,0.0902 0.494787,-0.0775 -0.0028,-0.0717 -0.02394,-0.0786 -0.047,-0.13208 -0.03582,-0.0831 -0.03578,-0.16239 0.05721,-0.14184 0.367145,0.0811 0,0 0.367145,0.0811 0.44259,0.0978 1.245056,0.3466 1.780232,0.66307 0.554511,0.3279 1.201028,0.94484 1.53314,1.46299 0.302775,0.47239 0.429065,0.51934 0.540632,0.20102 0.05495,-0.1568 0.06756,-0.16622 0.100406,-0.0751 0.02066,0.0573 0.06984,0.17736 0.109308,0.2667 0.270338,0.61208 0.314479,1.53738 0.102179,2.14185 -0.337268,0.96028 -0.905274,1.63547 -2.104346,2.50144 -0.74993,0.5416 -0.84943,0.62615 -0.994417,0.84505 -0.280183,0.42302 -0.551302,0.61881 -1.138091,0.8219 -0.37373,0.12934 -0.966533,0.11498 -1.303228,-0.0316 -0.409106,-0.17807 -0.42581,-0.2264 -0.136793,-0.39578 0.511067,-0.2995 0.967627,-0.84158 1.142406,-1.35638 0.0571,-0.16818 0.08569,-0.43264 0.08668,-0.80171 0.002,-0.73582 -0.114075,-1.02028 -0.629659,-1.54354 -0.292862,-0.29722 -0.469986,-0.42411 -0.853525,-0.61147 -0.736411,-0.35975 -1.305294,-0.48307 -2.480946,-0.53782 -0.793586,-0.037 -1.167759,0.002 -2.173642,0.22603 -1.352889,0.30138 -2.817693,1.0021 -3.988149,1.90781 -0.519519,0.40201 -1.439024,1.27305 -1.738493,1.64686 -0.147739,0.18441 -0.36302,0.4542 -0.478404,0.59952 -0.275021,0.34639 -0.788768,1.14865 -1.070593,1.67181 -0.262432,0.48717 -0.464422,0.94621 -0.464696,0.90295 z m 15.562748,-3.9926 c 0.250095,-0.1753 0.390193,-0.75684 0.19992,-0.82985 -0.136403,-0.0523 -0.343591,0.0499 -0.442094,0.21808 -0.0905,0.15456 -0.131764,0.54959 -0.06444,0.61691 0.04617,0.0462 0.237998,0.043 0.306618,-0.005 z m 1.222608,-6.53994 c -0.716004,-0.63864 -1.697435,-1.24855 -2.463201,-1.53074 -0.541861,-0.19968 -1.128543,-0.37596 -1.368551,-0.4112 -1.157785,-0.19929 -2.633924,-0.29732 -3.779621,-0.10536 -0.41813,0.0481 -1.739032,0.3476 -1.609689,0.26703 0.270839,-0.1557 1.431197,-0.53977 2.000685,-0.65606 0.526189,-0.10746 1.068238,-0.21682 1.345352,-0.27143 0.582896,-0.11487 2.439843,0.004 2.824031,0.18113 0.674887,0.23701 1.239747,0.55038 1.773742,0.94849 0.36907,0.28278 0.924314,0.82867 1.086231,1.06793 0.04851,0.0717 0.173542,0.25385 0.277846,0.40481 0.104303,0.15097 0.199332,0.33767 0.187817,0.34871 -0.01151,0.0111 -0.145614,-0.12822 -0.274642,-0.24331 z m -20.4475,-1.10974 c -0.402001,-0.30569 -0.922549,-0.83839 -1.197174,-1.22511 -0.225662,-0.31778 -0.670165,-1.13544 -0.807716,-1.48579 -0.09308,-0.23709 -0.413502,-1.22022 -0.484236,-1.48578 -0.03437,-0.12903 -0.08499,-0.3167 -0.112486,-0.41706 -0.0899,-0.3281 -0.182398,-1.06249 -0.298751,-2.37204 -0.02802,-0.3154 -0.06768,-0.72008 -0.08813,-0.89928 -0.02535,-0.22214 -0.01582,-0.51051 0.0227,-0.51051 0.03108,0 0.06697,0.27265 0.08389,0.38017 0.04978,0.31638 0.06302,0.37753 0.205961,0.95142 0.07499,0.30107 0.156319,0.62951 0.180739,0.72986 0.04419,0.18161 0.06938,0.25562 0.408139,1.19905 0.172343,0.47998 0.289516,0.77265 0.377201,0.94214 0.02332,0.0451 0.107468,0.20929 0.187005,0.36493 0.268528,0.52546 1.001438,1.58343 1.412553,2.03903 1.081016,1.198 2.480242,2.0009 3.923445,2.25135 0.502989,0.13427 1.042878,0.14691 1.462229,0.1598 0.525978,0.0157 0.9661,0.0383 0.978049,0.0502 0.05499,0.055 -0.761063,0.23919 -1.576055,0.35576 -1.679758,0.18621 -3.337812,-0.038 -4.677364,-1.02818 z m 5.746084,-0.89544 c -0.949172,-0.32799 -1.338851,-0.51282 -1.804418,-0.85584 -1.162661,-0.85662 -1.568078,-2.4582 -1.107295,-4.37431 0.118077,-0.491 0.418556,-1.40712 0.472451,-1.44043 0.03817,-0.0236 0.04476,0.0138 0.02048,0.11633 -0.220812,0.9323 -0.203243,2.6898 0.03565,3.56581 0.246375,0.90345 0.796483,1.74728 1.495407,2.29384 0.137363,0.16708 1.93263,1.02341 0.887723,0.69457 z m 7.014113,-2.70007 c -0.755839,-0.51813 -1.158748,-1.0333 -1.387589,-1.7742 -0.09864,-0.31937 -0.10733,-0.43083 -0.07501,-0.96257 0.05329,-0.87682 0.311271,-1.62076 1.117266,-3.22184 0.722202,-1.43462 0.864009,-1.8231 0.946337,-2.59248 0.03236,-0.30245 0.03216,-0.56152 -5.91e-4,-0.72986 -0.02791,-0.14353 -0.0759,-0.4338 -0.106658,-0.64503 -0.05154,-0.35393 -0.196574,-0.87586 -0.313401,-1.12779 -0.440531,-0.94999 -0.656641,-1.36458 -0.923957,-1.77251 -0.646583,-0.98675 -1.060819,-1.56351 -1.396872,-1.94496 -0.143789,-0.16321 -0.318748,-0.37885 -0.388797,-0.47921 -0.176486,-0.25284 -1.222107,-1.43192 -1.822775,-2.05542 -1.446114,-1.50109 -3.121817,-3.13327 -4.851634,-4.72562 -1.701435,-1.56623 -3.499371,-3.41893 -4.246015,-4.37535 -0.16788,-0.21505 -0.354486,-0.44174 -0.414681,-0.50375 -0.06019,-0.062 -0.203283,-0.23353 -0.317975,-0.38116 -0.114692,-0.14762 -0.280306,-0.35494 -0.368031,-0.46071 -0.471104,-0.56798 -2.155458,-3.02552 -2.249996,-3.28283 -0.0181,-0.0493 -0.138705,-0.26514 -0.268012,-0.47973 -0.205006,-0.34022 -1.184093,-2.27266 -1.274504,-2.52881 -0.05431,-0.15388 0.322767,0.48469 0.419613,0.67297 0.135964,0.26432 0.609469,1.0446 0.90424,1.49009 0.142295,0.21504 0.299189,0.45896 0.348653,0.54204 0.04946,0.0831 0.183773,0.2628 0.298464,0.39939 0.114693,0.13659 0.34929,0.42847 0.521327,0.64863 1.210365,1.54891 3.413325,3.75167 5.447865,5.44736 0.100355,0.0836 0.325279,0.27632 0.49983,0.42818 0.174551,0.15185 0.47616,0.40513 0.670243,0.56283 0.194082,0.1577 0.534811,0.43922 0.757174,0.62559 0.222363,0.18638 0.551277,0.45616 0.730921,0.59953 0.179643,0.14336 0.367963,0.29911 0.418489,0.34611 0.05053,0.047 0.205903,0.17611 0.345281,0.28691 0.139379,0.11081 0.441093,0.35907 0.670477,0.55169 0.229384,0.19263 0.783419,0.65155 1.231189,1.01984 0.931653,0.76629 1.509774,1.25641 2.227259,1.88825 0.277,0.24394 0.784429,0.68967 1.127622,0.99052 0.75714,0.66373 1.725011,1.58263 2.053664,1.94976 0.132978,0.14854 0.409067,0.45673 0.613528,0.68485 0.204463,0.22812 0.476334,0.54379 0.60416,0.70149 0.449439,0.55448 1.223455,1.78286 1.320001,2.09486 0.02056,0.0664 0.08139,0.20804 0.135197,0.31469 0.307727,0.60997 0.537876,2.10189 0.409786,2.65639 -0.312095,1.35102 -0.84879,2.38401 -2.026731,3.90088 -0.596112,0.76764 -0.991587,1.30799 -1.182815,1.61612 -0.796981,1.2842 -0.843871,2.59261 -0.124892,3.48486 0.14219,0.17645 0.241026,0.31999 0.219637,0.31898 -0.02139,-9.9e-4 -0.155166,-0.0815 -0.297283,-0.17898 z m 1.155365,-0.86278 c -0.06146,-0.23503 0.202203,-1.22974 0.4381,-1.65277 0.230746,-0.41379 0.606123,-0.88708 1.308061,-1.64925 0.772694,-0.839 1.10262,-1.291 1.37433,-1.88281 0.265239,-0.57772 0.340389,-0.84703 0.407719,-1.46114 l 0.06287,-0.57346 0.09523,0.3128 c 0.129845,0.42652 0.08978,1.37515 -0.07597,1.79858 -0.40066,1.02356 -0.809474,1.60065 -1.901949,2.68483 -0.952812,0.94558 -1.287404,1.4236 -1.581077,2.25882 -0.07894,0.22451 -0.103356,0.25604 -0.127318,0.1644 z m -17.508297,-6.4466 c -0.637282,-0.23161 -1.455209,-0.78297 -1.765441,-1.19006 -0.100355,-0.13169 -0.230947,-0.30282 -0.290203,-0.3803 -0.102634,-0.13418 -0.235101,-0.39736 -0.44413,-0.88235 -0.166431,-0.38617 -0.270324,-0.96077 -0.290101,-1.60447 l -0.01922,-0.6256 0.09922,0.1934 c 0.259704,0.50623 0.952616,1.4049 1.421391,1.84346 1.009665,0.9446 2.574648,1.80525 4.058588,2.232 0.52997,0.15241 1.378014,0.33688 1.824643,0.39691 0.243721,0.0327 0.595616,0.0839 0.78199,0.11374 0.186375,0.0298 0.702488,0.0698 1.146919,0.0888 0.750507,0.0322 0.82808,0.0605 0.364929,0.13336 -0.532509,0.0981 -1.128866,0.12883 -1.57362,0.17884 -1.873052,0.23865 -3.683334,0.0875 -5.314964,-0.49777 z m 5.569013,-3.80409 c -1.607124,-0.16016 -3.62086,-0.55649 -5.327346,-1.09081 -1.354814,-0.42259 -2.871684,-1.29576 -3.701818,-2.13092 -0.768925,-0.77358 -1.266148,-1.83846 -1.485174,-2.71383 -0.03292,-0.13158 -0.07902,-0.38231 -0.104085,-0.57346 -0.02282,-0.17399 -0.0389,-0.42929 -0.03402,-0.57346 0.02887,-0.8532 0.140343,-1.21946 0.185556,-1.38151 0.028,-0.10036 0.08077,-0.2939 0.117269,-0.4301 0.0365,-0.13619 0.08234,-0.24763 0.101863,-0.24763 0.01953,0 0.04681,0.0997 0.06063,0.22157 0.04481,0.39515 0.640223,1.8161 0.987957,2.35775 0.562547,0.87627 0.938851,1.34569 1.654799,2.0643 1.218422,1.22296 2.507517,2.12952 4.14593,2.91565 0.979707,0.47008 0.957936,0.46097 2.293838,0.95931 0.466364,0.1517 2.652242,0.73597 1.104599,0.62314 z m 0.33476,-4.66264 c -0.422622,-0.16908 -1.162735,-0.51113 -1.986752,-0.91819 -1.832176,-0.90509 -3.187904,-1.73566 -4.605525,-2.8215 -0.749144,-0.57381 -0.838295,-0.65329 -1.588336,-1.41611 -0.673517,-0.68499 -0.890434,-0.94255 -1.372132,-1.62925 -0.539116,-0.76854 -1.135996,-2.09319 -1.221684,-2.71125 -0.192152,-0.74195 -0.150034,-1.37913 -0.100758,-2.12495 0.04507,-0.69627 0.346564,-1.60258 0.911356,-2.73956 0.188309,-0.37909 0.606037,-1.01141 0.668984,-1.01264 0.04919,-9.7e-4 0.05659,0.0319 0.02607,0.11594 -0.0708,0.1949 -0.05087,2.21674 0.02532,2.56754 0.03736,0.17203 0.115752,0.53566 0.174199,0.80805 0.191174,0.89096 0.539191,1.97244 0.871464,2.69887 0.07296,0.15949 0.05939,0.0895 0.05939,0.1286 l 0.370553,0.71756 c 0.283576,0.55646 0.78729,1.39352 1.032272,1.7154 0.0743,0.0976 0.182008,0.25368 0.239354,0.34678 0.133736,0.21713 0.464,0.64857 0.864527,1.12936 0.478995,0.57499 2.268333,2.41474 2.670712,2.74597 0.19533,0.16079 0.481249,0.39791 0.635375,0.52694 0.590802,0.49459 0.999923,0.8209 1.245812,0.99364 0.14041,0.0986 0.339817,0.24268 0.443127,0.32009 0.103311,0.0774 0.322731,0.22737 0.4876,0.33324 0.16487,0.10587 0.299763,0.21262 0.299763,0.23721 0,0.0246 -0.0059,0.0432 -0.01303,0.0414 -0.0072,-0.002 -0.06911,-0.0257 -0.137654,-0.0532 z"
       id="path8767"
       sodipodi:nodetypes="sscsssssssssssssscsssscsssssscsssccsssssssssscsssssssssssssssssssssssssssscsssssssssssssssssssssssssssscssssscsssssssssssscssssssssssscsssssssssssscccssccsssscssssssssssssssccsccssssssccssssscsscsssssssssssssssssssssssssssssssssssscsscssscssssscsssscsssssssccssccssssssssssscccsssssccsccsssssssssssssssss" />
  </g>
</svg>
