<?xml version="1.0" encoding="UTF-8" standalone="no"?>
<svg
   version="1.1"
   width="128"
   height="128"
   x="0"
   y="0"
   viewBox="0 0 152 152"
   style="enable-background:new 0 0 128 128"
   xml:space="preserve"
   class=""
   id="svg14"
   sodipodi:docname="sk.svg"
   inkscape:version="1.1.1 (3bf5ae0d25, 2021-09-20)"
   xmlns:inkscape="http://www.inkscape.org/namespaces/inkscape"
   xmlns:sodipodi="http://sodipodi.sourceforge.net/DTD/sodipodi-0.dtd"
   xmlns="http://www.w3.org/2000/svg"
   xmlns:svg="http://www.w3.org/2000/svg"><defs
     id="defs18" /><sodipodi:namedview
     id="namedview16"
     pagecolor="#ffffff"
     bordercolor="#666666"
     borderopacity="1.0"
     inkscape:pageshadow="2"
     inkscape:pageopacity="0.0"
     inkscape:pagecheckerboard="0"
     showgrid="false"
     inkscape:zoom="6.34375"
     inkscape:cx="42.009852"
     inkscape:cy="64.078818"
     inkscape:window-width="1920"
     inkscape:window-height="1001"
     inkscape:window-x="-9"
     inkscape:window-y="-9"
     inkscape:window-maximized="1"
     inkscape:current-layer="g6" /><g
     id="g12"><g
       id="g10"><g
         id="g8"><g
           id="g6"><circle
             cx="76"
             cy="76"
             fill="#03a9f4"
             r="76"
             data-original="#03a9f4"
             class=""
             id="circle2"
             style="fill:#9aca3d;fill-opacity:1" /><path
             d="m113.62 84.45c5.79-26-17-49.64-43.75-45.11-14.53-9.01-33.87 1.17-33.87 18.46a21.5 21.5 0 0 0 3 11c-5.38 26.07 17.6 49.36 44.33 44.51 18.93 10.02 39.82-9.91 30.29-28.86zm-25.43 15.68c-7 2.89-18.58 2.91-25.57-.75-10-5.32-11.74-17.29-3.14-17.29 6.48 0 4.43 7.56 11 10.64 3 1.39 9.46 1.53 13.21-1s3.31-6.38 1.31-8.25c-5.34-4.93-20.61-3-27.6-11.6a12.54 12.54 0 0 1 .13-15.13c6.5-8.37 25.57-8.88 33.78-2.56 7.57 5.86 5.53 13.64-.59 13.64-7.35 0-3.48-9.62-15.35-9.62-8.6 0-12 6.12-5.93 9.1 8.24 4.08 29.16 2.69 29.16 18.69 0 6.63-4.08 11.58-10.41 14.16z"
             fill="#ffffff"
             data-original="#ffffff"
             id="path4" /></g></g></g></g></svg>
